<mxfile host="65bd71144e" pages="2">
    <diagram id="Ht1M8jgEwFfnCIfOTk4-" name="Page-1">
        <mxGraphModel dx="1932" dy="628" grid="1" gridSize="10" guides="1" tooltips="1" connect="1" arrows="1" fold="1" page="1" pageScale="1" pageWidth="1169" pageHeight="827" math="0" shadow="0">
            <root>
                <mxCell id="0"/>
                <mxCell id="1" parent="0"/>
                <mxCell id="UEzPUAAOIrF-is8g5C7q-128" style="edgeStyle=orthogonalEdgeStyle;rounded=0;orthogonalLoop=1;jettySize=auto;html=1;startArrow=open;startFill=0;endArrow=open;endFill=0;strokeWidth=2;strokeColor=#808080;" parent="1" source="UEzPUAAOIrF-is8g5C7q-109" target="D1GRQ9AEaJxn46nJNxp3-1" edge="1">
                    <mxGeometry relative="1" as="geometry">
                        <Array as="points">
                            <mxPoint x="90" y="99"/>
                        </Array>
                        <mxPoint x="310" y="670" as="targetPoint"/>
                    </mxGeometry>
                </mxCell>
                <mxCell id="D1GRQ9AEaJxn46nJNxp3-10" value="1- Load Web App" style="text;html=1;align=center;verticalAlign=middle;resizable=0;points=[];" parent="UEzPUAAOIrF-is8g5C7q-128" vertex="1" connectable="0">
                    <mxGeometry x="0.3916" y="3" relative="1" as="geometry">
                        <mxPoint x="-37.940000000000005" y="54" as="offset"/>
                    </mxGeometry>
                </mxCell>
                <mxCell id="UEzPUAAOIrF-is8g5C7q-124" value="&amp;nbsp;2- Upload File" style="edgeStyle=orthogonalEdgeStyle;rounded=0;orthogonalLoop=1;jettySize=auto;html=1;startArrow=none;startFill=0;endArrow=open;endFill=0;strokeWidth=2;strokeColor=#808080;" parent="1" source="UEzPUAAOIrF-is8g5C7q-109" target="UEzPUAAOIrF-is8g5C7q-116" edge="1">
                    <mxGeometry relative="1" as="geometry">
                        <Array as="points">
                            <mxPoint x="180" y="300"/>
                            <mxPoint x="180" y="300"/>
                        </Array>
                        <mxPoint x="120" y="303.5999999999999" as="sourcePoint"/>
                        <mxPoint x="320" y="304" as="targetPoint"/>
                    </mxGeometry>
                </mxCell>
                <mxCell id="UEzPUAAOIrF-is8g5C7q-115" value="&lt;font color=&quot;#fafafa&quot; style=&quot;background-color: rgb(61 , 61 , 61)&quot;&gt;s3-textract&lt;/font&gt;" style="outlineConnect=0;fontColor=#232F3E;gradientColor=none;fillColor=#D05C17;strokeColor=none;dashed=0;verticalLabelPosition=bottom;verticalAlign=top;align=center;html=1;fontSize=12;fontStyle=0;aspect=fixed;pointerEvents=1;shape=mxgraph.aws4.lambda_function;labelBackgroundColor=#ffffff;" parent="1" vertex="1">
                    <mxGeometry x="460" y="256.5" width="78" height="78" as="geometry"/>
                </mxCell>
                <mxCell id="D1GRQ9AEaJxn46nJNxp3-3" value="&lt;font color=&quot;#fafafa&quot; style=&quot;background-color: rgb(61 , 61 , 61)&quot;&gt;s3-jsonparse&lt;/font&gt;" style="outlineConnect=0;fontColor=#232F3E;gradientColor=none;fillColor=#D05C17;strokeColor=none;dashed=0;verticalLabelPosition=bottom;verticalAlign=top;align=center;html=1;fontSize=12;fontStyle=0;aspect=fixed;pointerEvents=1;shape=mxgraph.aws4.lambda_function;labelBackgroundColor=#ffffff;" parent="1" vertex="1">
                    <mxGeometry x="1060" y="263" width="78" height="78" as="geometry"/>
                </mxCell>
                <mxCell id="D1GRQ9AEaJxn46nJNxp3-1" value="&lt;font color=&quot;#ffffff&quot;&gt;Amplify&lt;/font&gt;" style="outlineConnect=0;fontColor=#232F3E;gradientColor=#F54749;gradientDirection=north;fillColor=#C7131F;strokeColor=#ffffff;dashed=0;verticalLabelPosition=bottom;verticalAlign=top;align=center;html=1;fontSize=12;fontStyle=0;aspect=fixed;shape=mxgraph.aws4.resourceIcon;resIcon=mxgraph.aws4.amplify;" parent="1" vertex="1">
                    <mxGeometry x="210" y="60" width="78" height="78" as="geometry"/>
                </mxCell>
                <mxCell id="D1GRQ9AEaJxn46nJNxp3-2" value="&amp;nbsp;3- Trigger" style="edgeStyle=orthogonalEdgeStyle;rounded=0;orthogonalLoop=1;jettySize=auto;html=1;startArrow=none;startFill=0;endArrow=open;endFill=0;strokeWidth=2;strokeColor=#808080;" parent="1" source="UEzPUAAOIrF-is8g5C7q-116" target="UEzPUAAOIrF-is8g5C7q-115" edge="1">
                    <mxGeometry x="0.0196" y="-4" relative="1" as="geometry">
                        <Array as="points">
                            <mxPoint x="500" y="279"/>
                            <mxPoint x="500" y="279"/>
                        </Array>
                        <mxPoint x="376.5" y="323.25" as="sourcePoint"/>
                        <mxPoint x="516.5" y="323.25" as="targetPoint"/>
                        <mxPoint y="1" as="offset"/>
                    </mxGeometry>
                </mxCell>
                <mxCell id="D1GRQ9AEaJxn46nJNxp3-7" value="&amp;nbsp;6- Trigger" style="edgeStyle=orthogonalEdgeStyle;rounded=0;orthogonalLoop=1;jettySize=auto;html=1;startArrow=none;startFill=0;endArrow=open;endFill=0;strokeWidth=2;strokeColor=#808080;" parent="1" source="2" target="D1GRQ9AEaJxn46nJNxp3-3" edge="1">
                    <mxGeometry x="-0.1765" y="-14" relative="1" as="geometry">
                        <Array as="points">
                            <mxPoint x="1060" y="296"/>
                            <mxPoint x="1060" y="289"/>
                        </Array>
                        <mxPoint x="358.0000000000002" y="298" as="sourcePoint"/>
                        <mxPoint x="620" y="390" as="targetPoint"/>
                        <mxPoint y="1" as="offset"/>
                    </mxGeometry>
                </mxCell>
                <mxCell id="D1GRQ9AEaJxn46nJNxp3-12" value="&lt;font color=&quot;#fcfcfc&quot;&gt;Textract&lt;/font&gt;" style="outlineConnect=0;fontColor=#232F3E;gradientColor=#4AB29A;gradientDirection=north;fillColor=#116D5B;strokeColor=#ffffff;dashed=0;verticalLabelPosition=bottom;verticalAlign=top;align=center;html=1;fontSize=12;fontStyle=0;aspect=fixed;shape=mxgraph.aws4.resourceIcon;resIcon=mxgraph.aws4.textract;" parent="1" vertex="1">
                    <mxGeometry x="660" y="256.5" width="78" height="78" as="geometry"/>
                </mxCell>
                <mxCell id="D1GRQ9AEaJxn46nJNxp3-21" value="&lt;font style=&quot;font-size: 12px&quot;&gt;&amp;nbsp;5&lt;/font&gt;- Send JobId&amp;nbsp;" style="edgeStyle=orthogonalEdgeStyle;rounded=0;orthogonalLoop=1;jettySize=auto;html=1;startArrow=open;startFill=0;endArrow=none;endFill=0;strokeWidth=2;strokeColor=#808080;exitX=0;exitY=0.5;exitDx=0;exitDy=0;exitPerimeter=0;" parent="1" source="2" target="D1GRQ9AEaJxn46nJNxp3-12" edge="1">
                    <mxGeometry x="0.0698" relative="1" as="geometry">
                        <Array as="points"/>
                        <mxPoint x="830" y="360" as="sourcePoint"/>
                        <mxPoint x="930" y="208" as="targetPoint"/>
                        <mxPoint as="offset"/>
                    </mxGeometry>
                </mxCell>
                <mxCell id="D1GRQ9AEaJxn46nJNxp3-22" value="&amp;nbsp;4- Send File" style="edgeStyle=orthogonalEdgeStyle;rounded=0;orthogonalLoop=1;jettySize=auto;html=1;startArrow=none;startFill=0;endArrow=open;endFill=0;strokeWidth=2;strokeColor=#808080;" parent="1" source="UEzPUAAOIrF-is8g5C7q-115" target="D1GRQ9AEaJxn46nJNxp3-12" edge="1">
                    <mxGeometry relative="1" as="geometry">
                        <Array as="points">
                            <mxPoint x="700" y="280"/>
                            <mxPoint x="700" y="279"/>
                        </Array>
                        <mxPoint x="688" y="273" as="sourcePoint"/>
                        <mxPoint x="850" y="279" as="targetPoint"/>
                    </mxGeometry>
                </mxCell>
                <mxCell id="D1GRQ9AEaJxn46nJNxp3-23" value="DynamoDB" style="outlineConnect=0;dashed=0;verticalLabelPosition=bottom;verticalAlign=top;align=center;html=1;shape=mxgraph.aws3.dynamo_db;fillColor=#2E73B8;gradientColor=none;" parent="1" vertex="1">
                    <mxGeometry x="1270" y="260" width="72" height="81" as="geometry"/>
                </mxCell>
                <mxCell id="D1GRQ9AEaJxn46nJNxp3-26" value="&amp;nbsp;7- Save Data" style="edgeStyle=orthogonalEdgeStyle;rounded=0;orthogonalLoop=1;jettySize=auto;html=1;startArrow=none;startFill=0;endArrow=open;endFill=0;strokeWidth=2;strokeColor=#808080;" parent="1" source="D1GRQ9AEaJxn46nJNxp3-3" target="D1GRQ9AEaJxn46nJNxp3-23" edge="1">
                    <mxGeometry relative="1" as="geometry">
                        <Array as="points">
                            <mxPoint x="1160" y="301"/>
                            <mxPoint x="1160" y="301"/>
                        </Array>
                        <mxPoint x="740" y="420" as="sourcePoint"/>
                        <mxPoint x="1030" y="280" as="targetPoint"/>
                    </mxGeometry>
                </mxCell>
                <mxCell id="UEzPUAAOIrF-is8g5C7q-109" value="&lt;font color=&quot;#fafafa&quot; style=&quot;background-color: rgb(61 , 61 , 61)&quot;&gt;User&lt;/font&gt;" style="outlineConnect=0;gradientColor=none;fontColor=#545B64;strokeColor=none;fillColor=#879196;dashed=0;verticalLabelPosition=bottom;verticalAlign=top;align=center;html=1;fontSize=12;fontStyle=0;aspect=fixed;shape=mxgraph.aws4.illustration_desktop;pointerEvents=1;labelBackgroundColor=#ffffff;" parent="1" vertex="1">
                    <mxGeometry x="40" y="250" width="100" height="91" as="geometry"/>
                </mxCell>
                <mxCell id="UEzPUAAOIrF-is8g5C7q-116" value="&lt;font color=&quot;#fafafa&quot; style=&quot;background-color: rgb(61 , 61 , 61)&quot;&gt;S3 Bucket&lt;/font&gt;" style="outlineConnect=0;fontColor=#232F3E;gradientColor=#60A337;gradientDirection=north;fillColor=#277116;strokeColor=#ffffff;dashed=0;verticalLabelPosition=bottom;verticalAlign=top;align=center;html=1;fontSize=12;fontStyle=0;aspect=fixed;shape=mxgraph.aws4.resourceIcon;resIcon=mxgraph.aws4.s3;labelBackgroundColor=#ffffff;" parent="1" vertex="1">
                    <mxGeometry x="280.0000000000002" y="256.5" width="78" height="78" as="geometry"/>
                </mxCell>
                <mxCell id="2" value="&lt;font color=&quot;#fafafa&quot;&gt;SNS&lt;/font&gt;" style="points=[[0,0,0],[0.25,0,0],[0.5,0,0],[0.75,0,0],[1,0,0],[0,1,0],[0.25,1,0],[0.5,1,0],[0.75,1,0],[1,1,0],[0,0.25,0],[0,0.5,0],[0,0.75,0],[1,0.25,0],[1,0.5,0],[1,0.75,0]];outlineConnect=0;fontColor=#232F3E;gradientColor=#F34482;gradientDirection=north;fillColor=#BC1356;strokeColor=#ffffff;dashed=0;verticalLabelPosition=bottom;verticalAlign=top;align=center;html=1;fontSize=12;fontStyle=0;aspect=fixed;shape=mxgraph.aws4.resourceIcon;resIcon=mxgraph.aws4.sns;" parent="1" vertex="1">
                    <mxGeometry x="880" y="256.5" width="78" height="78" as="geometry"/>
                </mxCell>
            </root>
        </mxGraphModel>
    </diagram>
    <diagram id="BazaT7jh_ANafjkWrkTZ" name="Page-2">
        &#xa;        &#xa;&#xa;
        <mxGraphModel dx="1469" dy="1125" grid="1" gridSize="10" guides="1" tooltips="1" connect="1" arrows="1" fold="1" page="1" pageScale="1" pageWidth="850" pageHeight="1100" math="0" shadow="0">
            &#xa;            &#xa;&#xa;
            <root>
                &#xa;                &#xa;&#xa;
                <mxCell id="kTIpCEwH_v8XfZGo6pUE-0"/>
                &#xa;                &#xa;&#xa;
                <mxCell id="kTIpCEwH_v8XfZGo6pUE-1" parent="kTIpCEwH_v8XfZGo6pUE-0"/>
                &#xa;                &#xa;&#xa;
                <mxCell id="A4VfMaQWKVN89gZAQxPE-0" style="edgeStyle=orthogonalEdgeStyle;rounded=0;orthogonalLoop=1;jettySize=auto;html=1;startArrow=open;startFill=0;endArrow=open;endFill=0;strokeWidth=2;strokeColor=#808080;" edge="1" parent="kTIpCEwH_v8XfZGo6pUE-1" source="A4VfMaQWKVN89gZAQxPE-20" target="A4VfMaQWKVN89gZAQxPE-6">
                    &#xa;                    &#xa;&#xa;
                    <mxGeometry relative="1" as="geometry">
                        &#xa;                        &#xa;&#xa;
                        <Array as="points">
                            &#xa;                            &#xa;&#xa;
                            <mxPoint x="160" y="316"/>
                            &#xa;                            &#xa;&#xa;
                            <mxPoint x="160" y="420"/>
                            &#xa;                            &#xa;&#xa;
                        </Array>
                        &#xa;                        &#xa;&#xa;
                        <mxPoint x="310" y="670" as="targetPoint"/>
                        &#xa;                        &#xa;&#xa;
                    </mxGeometry>
                    &#xa;                    &#xa;&#xa;
                </mxCell>
                &#xa;                &#xa;&#xa;
                <mxCell id="A4VfMaQWKVN89gZAQxPE-1" value="1- Load Web App" style="text;html=1;align=center;verticalAlign=middle;resizable=0;points=[];" vertex="1" connectable="0" parent="A4VfMaQWKVN89gZAQxPE-0">
                    &#xa;                    &#xa;&#xa;
                    <mxGeometry x="0.3916" y="3" relative="1" as="geometry">
                        &#xa;                        &#xa;&#xa;
                        <mxPoint x="20.4" y="-8" as="offset"/>
                        &#xa;                        &#xa;&#xa;
                    </mxGeometry>
                    &#xa;                    &#xa;&#xa;
                </mxCell>
                &#xa;                &#xa;&#xa;
                <mxCell id="A4VfMaQWKVN89gZAQxPE-2" value="&amp;nbsp;2- Upload File" style="edgeStyle=orthogonalEdgeStyle;rounded=0;orthogonalLoop=1;jettySize=auto;html=1;startArrow=open;startFill=0;endArrow=open;endFill=0;strokeWidth=2;strokeColor=#808080;" edge="1" parent="kTIpCEwH_v8XfZGo6pUE-1" source="A4VfMaQWKVN89gZAQxPE-20" target="A4VfMaQWKVN89gZAQxPE-5">
                    &#xa;                    &#xa;&#xa;
                    <mxGeometry relative="1" as="geometry">
                        &#xa;                        &#xa;&#xa;
                        <Array as="points">
                            &#xa;                            &#xa;&#xa;
                            <mxPoint x="260" y="290"/>
                            &#xa;                            &#xa;&#xa;
                            <mxPoint x="260" y="290"/>
                            &#xa;                            &#xa;&#xa;
                        </Array>
                        &#xa;                        &#xa;&#xa;
                        <mxPoint x="120" y="303.5999999999999" as="sourcePoint"/>
                        &#xa;                        &#xa;&#xa;
                        <mxPoint x="320" y="304" as="targetPoint"/>
                        &#xa;                        &#xa;&#xa;
                    </mxGeometry>
                    &#xa;                    &#xa;&#xa;
                </mxCell>
                &#xa;                &#xa;&#xa;
                <mxCell id="A4VfMaQWKVN89gZAQxPE-3" value="s3-textract" style="outlineConnect=0;fontColor=#232F3E;gradientColor=none;fillColor=#D05C17;strokeColor=none;dashed=0;verticalLabelPosition=bottom;verticalAlign=top;align=center;html=1;fontSize=12;fontStyle=0;aspect=fixed;pointerEvents=1;shape=mxgraph.aws4.lambda_function;labelBackgroundColor=#ffffff;" vertex="1" parent="kTIpCEwH_v8XfZGo6pUE-1">
                    &#xa;                    &#xa;&#xa;
                    <mxGeometry x="546" y="240" width="78" height="78" as="geometry"/>
                    &#xa;                    &#xa;&#xa;
                </mxCell>
                &#xa;                &#xa;&#xa;
                <mxCell id="A4VfMaQWKVN89gZAQxPE-4" value="parse-json" style="outlineConnect=0;fontColor=#232F3E;gradientColor=none;fillColor=#D05C17;strokeColor=none;dashed=0;verticalLabelPosition=bottom;verticalAlign=top;align=center;html=1;fontSize=12;fontStyle=0;aspect=fixed;pointerEvents=1;shape=mxgraph.aws4.lambda_function;labelBackgroundColor=#ffffff;" vertex="1" parent="kTIpCEwH_v8XfZGo6pUE-1">
                    &#xa;                    &#xa;&#xa;
                    <mxGeometry x="546" y="380" width="78" height="78" as="geometry"/>
                    &#xa;                    &#xa;&#xa;
                </mxCell>
                &#xa;                &#xa;&#xa;
                <mxCell id="A4VfMaQWKVN89gZAQxPE-5" value="S3 Bucket" style="outlineConnect=0;fontColor=#232F3E;gradientColor=#60A337;gradientDirection=north;fillColor=#277116;strokeColor=#ffffff;dashed=0;verticalLabelPosition=bottom;verticalAlign=top;align=center;html=1;fontSize=12;fontStyle=0;aspect=fixed;shape=mxgraph.aws4.resourceIcon;resIcon=mxgraph.aws4.s3;labelBackgroundColor=#ffffff;" vertex="1" parent="kTIpCEwH_v8XfZGo6pUE-1">
                    &#xa;                    &#xa;&#xa;
                    <mxGeometry x="280.0000000000002" y="240" width="78" height="78" as="geometry"/>
                    &#xa;                    &#xa;&#xa;
                </mxCell>
                &#xa;                &#xa;&#xa;
                <mxCell id="A4VfMaQWKVN89gZAQxPE-6" value="Amplify" style="outlineConnect=0;fontColor=#232F3E;gradientColor=#F54749;gradientDirection=north;fillColor=#C7131F;strokeColor=#ffffff;dashed=0;verticalLabelPosition=bottom;verticalAlign=top;align=center;html=1;fontSize=12;fontStyle=0;aspect=fixed;shape=mxgraph.aws4.resourceIcon;resIcon=mxgraph.aws4.amplify;" vertex="1" parent="kTIpCEwH_v8XfZGo6pUE-1">
                    &#xa;                    &#xa;&#xa;
                    <mxGeometry x="280" y="375" width="78" height="78" as="geometry"/>
                    &#xa;                    &#xa;&#xa;
                </mxCell>
                &#xa;                &#xa;&#xa;
                <mxCell id="A4VfMaQWKVN89gZAQxPE-7" value="&amp;nbsp;3- Trigger" style="edgeStyle=orthogonalEdgeStyle;rounded=0;orthogonalLoop=1;jettySize=auto;html=1;startArrow=open;startFill=0;endArrow=open;endFill=0;strokeWidth=2;strokeColor=#808080;" edge="1" parent="kTIpCEwH_v8XfZGo6pUE-1" source="A4VfMaQWKVN89gZAQxPE-5" target="A4VfMaQWKVN89gZAQxPE-3">
                    &#xa;                    &#xa;&#xa;
                    <mxGeometry relative="1" as="geometry">
                        &#xa;                        &#xa;&#xa;
                        <Array as="points">
                            &#xa;                            &#xa;&#xa;
                            <mxPoint x="510" y="270"/>
                            &#xa;                            &#xa;&#xa;
                            <mxPoint x="510" y="270"/>
                            &#xa;                            &#xa;&#xa;
                        </Array>
                        &#xa;                        &#xa;&#xa;
                        <mxPoint x="376.5" y="323.25" as="sourcePoint"/>
                        &#xa;                        &#xa;&#xa;
                        <mxPoint x="516.5" y="323.25" as="targetPoint"/>
                        &#xa;                        &#xa;&#xa;
                    </mxGeometry>
                    &#xa;                    &#xa;&#xa;
                </mxCell>
                &#xa;                &#xa;&#xa;
                <mxCell id="A4VfMaQWKVN89gZAQxPE-8" value="&amp;nbsp;6- Trigger" style="edgeStyle=orthogonalEdgeStyle;rounded=0;orthogonalLoop=1;jettySize=auto;html=1;startArrow=open;startFill=0;endArrow=open;endFill=0;strokeWidth=2;strokeColor=#808080;" edge="1" parent="kTIpCEwH_v8XfZGo6pUE-1" target="A4VfMaQWKVN89gZAQxPE-4" source="A4VfMaQWKVN89gZAQxPE-19">
                    &#xa;                    &#xa;&#xa;
                    <mxGeometry relative="1" as="geometry">
                        &#xa;                        &#xa;&#xa;
                        <Array as="points">
                            &#xa;                            &#xa;&#xa;
                            <mxPoint x="1220" y="70"/>
                            &#xa;                            &#xa;&#xa;
                            <mxPoint x="1220" y="350"/>
                            &#xa;                            &#xa;&#xa;
                            <mxPoint x="480" y="350"/>
                            &#xa;                            &#xa;&#xa;
                            <mxPoint x="480" y="419"/>
                            &#xa;                            &#xa;&#xa;
                        </Array>
                        &#xa;                        &#xa;&#xa;
                        <mxPoint x="1130" y="70" as="sourcePoint"/>
                        &#xa;                        &#xa;&#xa;
                        <mxPoint x="620" y="390" as="targetPoint"/>
                        &#xa;                        &#xa;&#xa;
                    </mxGeometry>
                    &#xa;                    &#xa;&#xa;
                </mxCell>
                &#xa;                &#xa;&#xa;
                <mxCell id="A4VfMaQWKVN89gZAQxPE-9" value="&amp;nbsp;8- Get JobId Result" style="edgeStyle=orthogonalEdgeStyle;rounded=0;orthogonalLoop=1;jettySize=auto;html=1;startArrow=open;startFill=0;endArrow=open;endFill=0;strokeWidth=2;strokeColor=#808080;" edge="1" parent="kTIpCEwH_v8XfZGo6pUE-1">
                    &#xa;                    &#xa;&#xa;
                    <mxGeometry relative="1" as="geometry">
                        &#xa;                        &#xa;&#xa;
                        <Array as="points"/>
                        &#xa;                        &#xa;&#xa;
                        <mxPoint x="624" y="270" as="sourcePoint"/>
                        &#xa;                        &#xa;&#xa;
                        <mxPoint x="870" y="270" as="targetPoint"/>
                        &#xa;                        &#xa;&#xa;
                    </mxGeometry>
                    &#xa;                    &#xa;&#xa;
                </mxCell>
                &#xa;                &#xa;&#xa;
                <mxCell id="A4VfMaQWKVN89gZAQxPE-10" value="Textract" style="outlineConnect=0;fontColor=#232F3E;gradientColor=#4AB29A;gradientDirection=north;fillColor=#116D5B;strokeColor=#ffffff;dashed=0;verticalLabelPosition=bottom;verticalAlign=top;align=center;html=1;fontSize=12;fontStyle=0;aspect=fixed;shape=mxgraph.aws4.resourceIcon;resIcon=mxgraph.aws4.textract;" vertex="1" parent="kTIpCEwH_v8XfZGo6pUE-1">
                    &#xa;                    &#xa;&#xa;
                    <mxGeometry x="877" y="240" width="78" height="78" as="geometry"/>
                    &#xa;                    &#xa;&#xa;
                </mxCell>
                &#xa;                &#xa;&#xa;
                <mxCell id="A4VfMaQWKVN89gZAQxPE-11" value="5- Send message to topic with JobId" style="edgeStyle=orthogonalEdgeStyle;rounded=0;orthogonalLoop=1;jettySize=auto;html=1;startArrow=open;startFill=0;endArrow=open;endFill=0;strokeWidth=2;strokeColor=#808080;" edge="1" parent="kTIpCEwH_v8XfZGo6pUE-1" source="A4VfMaQWKVN89gZAQxPE-19" target="A4VfMaQWKVN89gZAQxPE-10">
                    &#xa;                    &#xa;&#xa;
                    <mxGeometry x="0.3416" relative="1" as="geometry">
                        &#xa;                        &#xa;&#xa;
                        <Array as="points">
                            &#xa;                            &#xa;&#xa;
                            <mxPoint x="929" y="59"/>
                            &#xa;                            &#xa;&#xa;
                        </Array>
                        &#xa;                        &#xa;&#xa;
                        <mxPoint x="858" y="59" as="sourcePoint"/>
                        &#xa;                        &#xa;&#xa;
                        <mxPoint x="940" y="220" as="targetPoint"/>
                        &#xa;                        &#xa;&#xa;
                        <mxPoint as="offset"/>
                        &#xa;                        &#xa;&#xa;
                    </mxGeometry>
                    &#xa;                    &#xa;&#xa;
                </mxCell>
                &#xa;                &#xa;&#xa;
                <mxCell id="A4VfMaQWKVN89gZAQxPE-12" value="SQS Queue" style="outlineConnect=0;fontColor=#232F3E;gradientColor=#F34482;gradientDirection=north;fillColor=#BC1356;strokeColor=#ffffff;dashed=0;verticalLabelPosition=bottom;verticalAlign=top;align=center;html=1;fontSize=12;fontStyle=0;aspect=fixed;shape=mxgraph.aws4.resourceIcon;resIcon=mxgraph.aws4.sqs;" vertex="1" parent="kTIpCEwH_v8XfZGo6pUE-1">
                    &#xa;                    &#xa;&#xa;
                    <mxGeometry x="546" y="30" width="78" height="78" as="geometry"/>
                    &#xa;                    &#xa;&#xa;
                </mxCell>
                &#xa;                &#xa;&#xa;
                <mxCell id="A4VfMaQWKVN89gZAQxPE-13" value="&amp;nbsp;6- Add message to SQS" style="edgeStyle=orthogonalEdgeStyle;rounded=0;orthogonalLoop=1;jettySize=auto;html=1;startArrow=open;startFill=0;endArrow=open;endFill=0;strokeWidth=2;strokeColor=#808080;" edge="1" parent="kTIpCEwH_v8XfZGo6pUE-1" source="A4VfMaQWKVN89gZAQxPE-12" target="A4VfMaQWKVN89gZAQxPE-19">
                    &#xa;                    &#xa;&#xa;
                    <mxGeometry relative="1" as="geometry">
                        &#xa;                        &#xa;&#xa;
                        <Array as="points">
                            &#xa;                            &#xa;&#xa;
                            <mxPoint x="840" y="80"/>
                            &#xa;                            &#xa;&#xa;
                            <mxPoint x="840" y="80"/>
                            &#xa;                            &#xa;&#xa;
                        </Array>
                        &#xa;                        &#xa;&#xa;
                        <mxPoint x="768" y="100" as="sourcePoint"/>
                        &#xa;                        &#xa;&#xa;
                        <mxPoint x="720" y="140" as="targetPoint"/>
                        &#xa;                        &#xa;&#xa;
                    </mxGeometry>
                    &#xa;                    &#xa;&#xa;
                </mxCell>
                &#xa;                &#xa;&#xa;
                <mxCell id="A4VfMaQWKVN89gZAQxPE-14" value="7- Check for message with JobId" style="edgeStyle=orthogonalEdgeStyle;rounded=0;orthogonalLoop=1;jettySize=auto;html=1;startArrow=open;startFill=0;endArrow=open;endFill=0;strokeWidth=2;strokeColor=#808080;" edge="1" parent="kTIpCEwH_v8XfZGo6pUE-1" source="A4VfMaQWKVN89gZAQxPE-12" target="A4VfMaQWKVN89gZAQxPE-3">
                    &#xa;                    &#xa;&#xa;
                    <mxGeometry x="0.0141" y="85" relative="1" as="geometry">
                        &#xa;                        &#xa;&#xa;
                        <Array as="points">
                            &#xa;                            &#xa;&#xa;
                            <mxPoint x="585" y="210"/>
                            &#xa;                            &#xa;&#xa;
                            <mxPoint x="585" y="210"/>
                            &#xa;                            &#xa;&#xa;
                        </Array>
                        &#xa;                        &#xa;&#xa;
                        <mxPoint x="468" y="90" as="sourcePoint"/>
                        &#xa;                        &#xa;&#xa;
                        <mxPoint x="690" y="90" as="targetPoint"/>
                        &#xa;                        &#xa;&#xa;
                        <mxPoint as="offset"/>
                        &#xa;                        &#xa;&#xa;
                    </mxGeometry>
                    &#xa;                    &#xa;&#xa;
                </mxCell>
                &#xa;                &#xa;&#xa;
                <mxCell id="A4VfMaQWKVN89gZAQxPE-15" value="&lt;font style=&quot;font-size: 12px&quot;&gt;&amp;nbsp;&lt;/font&gt;&lt;font style=&quot;font-size: 11px&quot;&gt;9&lt;/font&gt;- Save textract result" style="edgeStyle=orthogonalEdgeStyle;rounded=0;orthogonalLoop=1;jettySize=auto;html=1;startArrow=open;startFill=0;endArrow=open;endFill=0;strokeWidth=2;strokeColor=#808080;" edge="1" parent="kTIpCEwH_v8XfZGo6pUE-1" source="A4VfMaQWKVN89gZAQxPE-5" target="A4VfMaQWKVN89gZAQxPE-3">
                    &#xa;                    &#xa;&#xa;
                    <mxGeometry relative="1" as="geometry">
                        &#xa;                        &#xa;&#xa;
                        <Array as="points">
                            &#xa;                            &#xa;&#xa;
                            <mxPoint x="330" y="208"/>
                            &#xa;                            &#xa;&#xa;
                            <mxPoint x="570" y="208"/>
                            &#xa;                            &#xa;&#xa;
                        </Array>
                        &#xa;                        &#xa;&#xa;
                        <mxPoint x="358.0000000000002" y="240" as="sourcePoint"/>
                        &#xa;                        &#xa;&#xa;
                        <mxPoint x="585" y="220" as="targetPoint"/>
                        &#xa;                        &#xa;&#xa;
                    </mxGeometry>
                    &#xa;                    &#xa;&#xa;
                </mxCell>
                &#xa;                &#xa;&#xa;
                <mxCell id="A4VfMaQWKVN89gZAQxPE-16" value="&amp;nbsp;4- Send File" style="edgeStyle=orthogonalEdgeStyle;rounded=0;orthogonalLoop=1;jettySize=auto;html=1;startArrow=open;startFill=0;endArrow=open;endFill=0;strokeWidth=2;strokeColor=#808080;" edge="1" parent="kTIpCEwH_v8XfZGo6pUE-1" source="A4VfMaQWKVN89gZAQxPE-3" target="A4VfMaQWKVN89gZAQxPE-10">
                    &#xa;                    &#xa;&#xa;
                    <mxGeometry relative="1" as="geometry">
                        &#xa;                        &#xa;&#xa;
                        <Array as="points">
                            &#xa;                            &#xa;&#xa;
                            <mxPoint x="690" y="300"/>
                            &#xa;                            &#xa;&#xa;
                            <mxPoint x="690" y="300"/>
                            &#xa;                            &#xa;&#xa;
                        </Array>
                        &#xa;                        &#xa;&#xa;
                        <mxPoint x="688" y="273" as="sourcePoint"/>
                        &#xa;                        &#xa;&#xa;
                        <mxPoint x="850" y="279" as="targetPoint"/>
                        &#xa;                        &#xa;&#xa;
                    </mxGeometry>
                    &#xa;                    &#xa;&#xa;
                </mxCell>
                &#xa;                &#xa;&#xa;
                <mxCell id="A4VfMaQWKVN89gZAQxPE-17" value="DynamoDB" style="outlineConnect=0;dashed=0;verticalLabelPosition=bottom;verticalAlign=top;align=center;html=1;shape=mxgraph.aws3.dynamo_db;fillColor=#2E73B8;gradientColor=none;" vertex="1" parent="kTIpCEwH_v8XfZGo6pUE-1">
                    &#xa;                    &#xa;&#xa;
                    <mxGeometry x="880" y="373" width="72" height="81" as="geometry"/>
                    &#xa;                    &#xa;&#xa;
                </mxCell>
                &#xa;                &#xa;&#xa;
                <mxCell id="A4VfMaQWKVN89gZAQxPE-18" value="&amp;nbsp;7- Save Data" style="edgeStyle=orthogonalEdgeStyle;rounded=0;orthogonalLoop=1;jettySize=auto;html=1;startArrow=open;startFill=0;endArrow=open;endFill=0;strokeWidth=2;strokeColor=#808080;" edge="1" parent="kTIpCEwH_v8XfZGo6pUE-1" source="A4VfMaQWKVN89gZAQxPE-4" target="A4VfMaQWKVN89gZAQxPE-17">
                    &#xa;                    &#xa;&#xa;
                    <mxGeometry relative="1" as="geometry">
                        &#xa;                        &#xa;&#xa;
                        <Array as="points">
                            &#xa;                            &#xa;&#xa;
                            <mxPoint x="926" y="420"/>
                            &#xa;                            &#xa;&#xa;
                        </Array>
                        &#xa;                        &#xa;&#xa;
                        <mxPoint x="740" y="420" as="sourcePoint"/>
                        &#xa;                        &#xa;&#xa;
                        <mxPoint x="1030" y="280" as="targetPoint"/>
                        &#xa;                        &#xa;&#xa;
                    </mxGeometry>
                    &#xa;                    &#xa;&#xa;
                </mxCell>
                &#xa;                &#xa;&#xa;
                <mxCell id="A4VfMaQWKVN89gZAQxPE-19" value="SNS Topic" style="outlineConnect=0;fontColor=#232F3E;gradientColor=#F34482;gradientDirection=north;fillColor=#BC1356;strokeColor=#ffffff;dashed=0;verticalLabelPosition=bottom;verticalAlign=top;align=center;html=1;fontSize=12;fontStyle=0;aspect=fixed;shape=mxgraph.aws4.resourceIcon;resIcon=mxgraph.aws4.sns;" vertex="1" parent="kTIpCEwH_v8XfZGo6pUE-1">
                    &#xa;                    &#xa;&#xa;
                    <mxGeometry x="880" y="30" width="78" height="78" as="geometry"/>
                    &#xa;                    &#xa;&#xa;
                </mxCell>
                &#xa;                &#xa;&#xa;
                <mxCell id="A4VfMaQWKVN89gZAQxPE-20" value="User" style="outlineConnect=0;gradientColor=none;fontColor=#545B64;strokeColor=none;fillColor=#879196;dashed=0;verticalLabelPosition=bottom;verticalAlign=top;align=center;html=1;fontSize=12;fontStyle=0;aspect=fixed;shape=mxgraph.aws4.illustration_desktop;pointerEvents=1;labelBackgroundColor=#ffffff;" vertex="1" parent="kTIpCEwH_v8XfZGo6pUE-1">
                    &#xa;                    &#xa;&#xa;
                    <mxGeometry x="10" y="265" width="100" height="91" as="geometry"/>
                    &#xa;                    &#xa;&#xa;
                </mxCell>
                &#xa;                &#xa;&#xa;
            </root>
            &#xa;            &#xa;&#xa;
        </mxGraphModel>
        &#xa;        &#xa;&#xa;
    </diagram>
</mxfile>